<mxfile host="app.diagrams.net" agent="Mozilla/5.0 (Macintosh; Intel Mac OS X 10_15_7) AppleWebKit/537.36 (KHTML, like Gecko) Chrome/130.0.0.0 Safari/537.36" version="24.8.6">
  <diagram name="Page-1" id="xG2RJN60vZFD6uDRvCDi">
    <mxGraphModel dx="968" dy="1819" grid="1" gridSize="10" guides="1" tooltips="1" connect="1" arrows="1" fold="1" page="1" pageScale="1" pageWidth="827" pageHeight="1169" math="0" shadow="0">
      <root>
        <mxCell id="0" />
        <mxCell id="1" parent="0" />
        <mxCell id="-Pgl7EnzZRn0viPuzSYj-1" style="edgeStyle=orthogonalEdgeStyle;rounded=0;orthogonalLoop=1;jettySize=auto;html=1;exitX=0.5;exitY=1;exitDx=0;exitDy=0;entryX=0.5;entryY=0;entryDx=0;entryDy=0;" parent="1" source="-Pgl7EnzZRn0viPuzSYj-2" target="-Pgl7EnzZRn0viPuzSYj-6" edge="1">
          <mxGeometry relative="1" as="geometry" />
        </mxCell>
        <mxCell id="-Pgl7EnzZRn0viPuzSYj-2" value="开始" style="rounded=1;whiteSpace=wrap;html=1;fontSize=12;glass=0;strokeWidth=1;shadow=0;" parent="1" vertex="1">
          <mxGeometry x="160" y="-300" width="120" height="40" as="geometry" />
        </mxCell>
        <mxCell id="-Pgl7EnzZRn0viPuzSYj-3" value="&lt;span style=&quot;font-size: 11px; text-wrap: nowrap; background-color: rgb(255, 255, 255);&quot;&gt;模型训练&lt;/span&gt;" style="rounded=0;whiteSpace=wrap;html=1;" parent="1" vertex="1">
          <mxGeometry x="160" y="-140" width="120" height="50" as="geometry" />
        </mxCell>
        <mxCell id="-Pgl7EnzZRn0viPuzSYj-4" style="edgeStyle=orthogonalEdgeStyle;rounded=0;orthogonalLoop=1;jettySize=auto;html=1;exitX=0.5;exitY=1;exitDx=0;exitDy=0;" parent="1" source="-Pgl7EnzZRn0viPuzSYj-6" target="-Pgl7EnzZRn0viPuzSYj-3" edge="1">
          <mxGeometry relative="1" as="geometry" />
        </mxCell>
        <mxCell id="-Pgl7EnzZRn0viPuzSYj-5" style="edgeStyle=orthogonalEdgeStyle;rounded=0;orthogonalLoop=1;jettySize=auto;html=1;exitX=1;exitY=0.5;exitDx=0;exitDy=0;" parent="1" source="-Pgl7EnzZRn0viPuzSYj-6" target="-Pgl7EnzZRn0viPuzSYj-10" edge="1">
          <mxGeometry relative="1" as="geometry" />
        </mxCell>
        <mxCell id="-Pgl7EnzZRn0viPuzSYj-6" value="训练集" style="shape=parallelogram;perimeter=parallelogramPerimeter;whiteSpace=wrap;html=1;fixedSize=1;" parent="1" vertex="1">
          <mxGeometry x="160" y="-230" width="120" height="60" as="geometry" />
        </mxCell>
        <mxCell id="-Pgl7EnzZRn0viPuzSYj-7" style="edgeStyle=orthogonalEdgeStyle;rounded=0;orthogonalLoop=1;jettySize=auto;html=1;exitX=1;exitY=0.5;exitDx=0;exitDy=0;entryX=0;entryY=0.5;entryDx=0;entryDy=0;" parent="1" source="-Pgl7EnzZRn0viPuzSYj-8" target="-Pgl7EnzZRn0viPuzSYj-10" edge="1">
          <mxGeometry relative="1" as="geometry" />
        </mxCell>
        <mxCell id="-Pgl7EnzZRn0viPuzSYj-8" value="float pth 模型" style="shape=parallelogram;perimeter=parallelogramPerimeter;whiteSpace=wrap;html=1;fixedSize=1;" parent="1" vertex="1">
          <mxGeometry x="160" y="-50" width="120" height="50" as="geometry" />
        </mxCell>
        <mxCell id="-Pgl7EnzZRn0viPuzSYj-9" style="edgeStyle=orthogonalEdgeStyle;rounded=0;orthogonalLoop=1;jettySize=auto;html=1;exitX=0.5;exitY=1;exitDx=0;exitDy=0;entryX=0.499;entryY=0.056;entryDx=0;entryDy=0;entryPerimeter=0;" parent="1" source="-Pgl7EnzZRn0viPuzSYj-3" target="-Pgl7EnzZRn0viPuzSYj-8" edge="1">
          <mxGeometry relative="1" as="geometry" />
        </mxCell>
        <mxCell id="-Pgl7EnzZRn0viPuzSYj-10" value="&lt;span style=&quot;font-size: 11px; text-wrap: nowrap; background-color: rgb(255, 255, 255);&quot;&gt;单帧模型推理&lt;/span&gt;" style="rounded=0;whiteSpace=wrap;html=1;" parent="1" vertex="1">
          <mxGeometry x="319.5" y="-50" width="120" height="50" as="geometry" />
        </mxCell>
        <mxCell id="-Pgl7EnzZRn0viPuzSYj-11" value="" style="edgeStyle=orthogonalEdgeStyle;rounded=0;orthogonalLoop=1;jettySize=auto;html=1;" parent="1" source="-Pgl7EnzZRn0viPuzSYj-13" edge="1">
          <mxGeometry relative="1" as="geometry">
            <mxPoint x="383" y="250" as="targetPoint" />
            <Array as="points">
              <mxPoint x="383" y="240" />
              <mxPoint x="384" y="240" />
              <mxPoint x="384" y="250" />
            </Array>
          </mxGeometry>
        </mxCell>
        <mxCell id="-Pgl7EnzZRn0viPuzSYj-12" value="Y" style="edgeLabel;html=1;align=center;verticalAlign=middle;resizable=0;points=[];" parent="-Pgl7EnzZRn0viPuzSYj-11" vertex="1" connectable="0">
          <mxGeometry x="-0.2326" y="-1" relative="1" as="geometry">
            <mxPoint as="offset" />
          </mxGeometry>
        </mxCell>
        <mxCell id="-Pgl7EnzZRn0viPuzSYj-13" value="object_num &amp;gt; thr2" style="rhombus;whiteSpace=wrap;html=1;" parent="1" vertex="1">
          <mxGeometry x="318" y="170" width="130" height="50" as="geometry" />
        </mxCell>
        <mxCell id="-Pgl7EnzZRn0viPuzSYj-14" style="edgeStyle=orthogonalEdgeStyle;rounded=0;orthogonalLoop=1;jettySize=auto;html=1;exitX=0.5;exitY=1;exitDx=0;exitDy=0;" parent="1" target="-Pgl7EnzZRn0viPuzSYj-17" edge="1">
          <mxGeometry relative="1" as="geometry">
            <mxPoint x="383" y="280" as="sourcePoint" />
          </mxGeometry>
        </mxCell>
        <mxCell id="-Pgl7EnzZRn0viPuzSYj-15" style="edgeStyle=orthogonalEdgeStyle;rounded=0;orthogonalLoop=1;jettySize=auto;html=1;exitX=0.5;exitY=1;exitDx=0;exitDy=0;" parent="1" source="-Pgl7EnzZRn0viPuzSYj-17" target="-Pgl7EnzZRn0viPuzSYj-32" edge="1">
          <mxGeometry relative="1" as="geometry" />
        </mxCell>
        <mxCell id="-Pgl7EnzZRn0viPuzSYj-16" value="Y" style="edgeLabel;html=1;align=center;verticalAlign=middle;resizable=0;points=[];" parent="-Pgl7EnzZRn0viPuzSYj-15" vertex="1" connectable="0">
          <mxGeometry x="-0.3111" relative="1" as="geometry">
            <mxPoint as="offset" />
          </mxGeometry>
        </mxCell>
        <mxCell id="-Pgl7EnzZRn0viPuzSYj-17" value="sample_num&amp;nbsp;&amp;gt; thr3" style="rhombus;whiteSpace=wrap;html=1;" parent="1" vertex="1">
          <mxGeometry x="318" y="310" width="130" height="50" as="geometry" />
        </mxCell>
        <mxCell id="-Pgl7EnzZRn0viPuzSYj-18" style="edgeStyle=orthogonalEdgeStyle;rounded=0;orthogonalLoop=1;jettySize=auto;html=1;exitX=0.5;exitY=1;exitDx=0;exitDy=0;entryX=0.5;entryY=0;entryDx=0;entryDy=0;" parent="1" source="-Pgl7EnzZRn0viPuzSYj-19" target="-Pgl7EnzZRn0viPuzSYj-21" edge="1">
          <mxGeometry relative="1" as="geometry" />
        </mxCell>
        <mxCell id="-Pgl7EnzZRn0viPuzSYj-19" value="&lt;span style=&quot;font-size: 11px; text-wrap: nowrap; background-color: rgb(255, 255, 255);&quot;&gt;object_scores &amp;gt; th1&lt;/span&gt;" style="rounded=0;whiteSpace=wrap;html=1;" parent="1" vertex="1">
          <mxGeometry x="320" y="30" width="120" height="40" as="geometry" />
        </mxCell>
        <mxCell id="-Pgl7EnzZRn0viPuzSYj-20" style="edgeStyle=orthogonalEdgeStyle;rounded=0;orthogonalLoop=1;jettySize=auto;html=1;exitX=0.5;exitY=1;exitDx=0;exitDy=0;entryX=0.494;entryY=-0.04;entryDx=0;entryDy=0;entryPerimeter=0;" parent="1" source="-Pgl7EnzZRn0viPuzSYj-10" target="-Pgl7EnzZRn0viPuzSYj-19" edge="1">
          <mxGeometry relative="1" as="geometry" />
        </mxCell>
        <mxCell id="-Pgl7EnzZRn0viPuzSYj-21" value="object_num" style="shape=parallelogram;perimeter=parallelogramPerimeter;whiteSpace=wrap;html=1;fixedSize=1;" parent="1" vertex="1">
          <mxGeometry x="323" y="100" width="127" height="40" as="geometry" />
        </mxCell>
        <mxCell id="-Pgl7EnzZRn0viPuzSYj-22" style="edgeStyle=orthogonalEdgeStyle;rounded=0;orthogonalLoop=1;jettySize=auto;html=1;exitX=0.5;exitY=1;exitDx=0;exitDy=0;entryX=0.469;entryY=0.04;entryDx=0;entryDy=0;entryPerimeter=0;" parent="1" edge="1">
          <mxGeometry relative="1" as="geometry">
            <mxPoint x="389.01" y="140" as="sourcePoint" />
            <mxPoint x="384.9799999999999" y="172" as="targetPoint" />
            <Array as="points">
              <mxPoint x="383.99" y="140" />
              <mxPoint x="383.99" y="172" />
            </Array>
          </mxGeometry>
        </mxCell>
        <mxCell id="-Pgl7EnzZRn0viPuzSYj-23" value="sample_num" style="shape=parallelogram;perimeter=parallelogramPerimeter;whiteSpace=wrap;html=1;fixedSize=1;" parent="1" vertex="1">
          <mxGeometry x="319.5" y="250" width="127" height="40" as="geometry" />
        </mxCell>
        <mxCell id="-Pgl7EnzZRn0viPuzSYj-24" value="&lt;span style=&quot;font-size: 11px; text-wrap: nowrap; background-color: rgb(255, 255, 255);&quot;&gt;pth转onnx&lt;/span&gt;" style="rounded=0;whiteSpace=wrap;html=1;" parent="1" vertex="1">
          <mxGeometry x="160" y="40" width="120" height="40" as="geometry" />
        </mxCell>
        <mxCell id="-Pgl7EnzZRn0viPuzSYj-25" value="onnx模型" style="shape=parallelogram;perimeter=parallelogramPerimeter;whiteSpace=wrap;html=1;fixedSize=1;fillColor=#fff2cc;strokeColor=#d6b656;" parent="1" vertex="1">
          <mxGeometry x="153" y="130" width="127" height="40" as="geometry" />
        </mxCell>
        <mxCell id="-Pgl7EnzZRn0viPuzSYj-26" style="edgeStyle=orthogonalEdgeStyle;rounded=0;orthogonalLoop=1;jettySize=auto;html=1;exitX=0.5;exitY=1;exitDx=0;exitDy=0;entryX=0.533;entryY=0;entryDx=0;entryDy=0;entryPerimeter=0;" parent="1" source="-Pgl7EnzZRn0viPuzSYj-24" target="-Pgl7EnzZRn0viPuzSYj-25" edge="1">
          <mxGeometry relative="1" as="geometry" />
        </mxCell>
        <mxCell id="-Pgl7EnzZRn0viPuzSYj-27" style="edgeStyle=orthogonalEdgeStyle;rounded=0;orthogonalLoop=1;jettySize=auto;html=1;exitX=0.5;exitY=1;exitDx=0;exitDy=0;entryX=0.494;entryY=0.058;entryDx=0;entryDy=0;entryPerimeter=0;" parent="1" source="-Pgl7EnzZRn0viPuzSYj-8" target="-Pgl7EnzZRn0viPuzSYj-24" edge="1">
          <mxGeometry relative="1" as="geometry" />
        </mxCell>
        <mxCell id="-Pgl7EnzZRn0viPuzSYj-28" style="edgeStyle=orthogonalEdgeStyle;rounded=0;orthogonalLoop=1;jettySize=auto;html=1;exitX=1;exitY=0.5;exitDx=0;exitDy=0;entryX=1.004;entryY=0.4;entryDx=0;entryDy=0;entryPerimeter=0;" parent="1" source="-Pgl7EnzZRn0viPuzSYj-13" target="-Pgl7EnzZRn0viPuzSYj-10" edge="1">
          <mxGeometry relative="1" as="geometry" />
        </mxCell>
        <mxCell id="-Pgl7EnzZRn0viPuzSYj-29" value="N" style="edgeLabel;html=1;align=center;verticalAlign=middle;resizable=0;points=[];" parent="-Pgl7EnzZRn0viPuzSYj-28" vertex="1" connectable="0">
          <mxGeometry x="-0.9585" y="1" relative="1" as="geometry">
            <mxPoint as="offset" />
          </mxGeometry>
        </mxCell>
        <mxCell id="-Pgl7EnzZRn0viPuzSYj-30" style="edgeStyle=orthogonalEdgeStyle;rounded=0;orthogonalLoop=1;jettySize=auto;html=1;exitX=1;exitY=0.5;exitDx=0;exitDy=0;entryX=1.004;entryY=0.4;entryDx=0;entryDy=0;entryPerimeter=0;" parent="1" source="-Pgl7EnzZRn0viPuzSYj-17" target="-Pgl7EnzZRn0viPuzSYj-10" edge="1">
          <mxGeometry relative="1" as="geometry" />
        </mxCell>
        <mxCell id="-Pgl7EnzZRn0viPuzSYj-31" value="N" style="edgeLabel;html=1;align=center;verticalAlign=middle;resizable=0;points=[];" parent="-Pgl7EnzZRn0viPuzSYj-30" vertex="1" connectable="0">
          <mxGeometry x="-0.9416" relative="1" as="geometry">
            <mxPoint as="offset" />
          </mxGeometry>
        </mxCell>
        <mxCell id="-Pgl7EnzZRn0viPuzSYj-32" value="校准集" style="shape=parallelogram;perimeter=parallelogramPerimeter;whiteSpace=wrap;html=1;fixedSize=1;fillColor=#fff2cc;strokeColor=#d6b656;" parent="1" vertex="1">
          <mxGeometry x="320" y="390" width="127" height="40" as="geometry" />
        </mxCell>
        <mxCell id="-Pgl7EnzZRn0viPuzSYj-33" style="edgeStyle=orthogonalEdgeStyle;rounded=0;orthogonalLoop=1;jettySize=auto;html=1;exitX=0.5;exitY=1;exitDx=0;exitDy=0;" parent="1" source="-Pgl7EnzZRn0viPuzSYj-34" target="-Pgl7EnzZRn0viPuzSYj-38" edge="1">
          <mxGeometry relative="1" as="geometry" />
        </mxCell>
        <mxCell id="-Pgl7EnzZRn0viPuzSYj-34" value="onnx模型" style="shape=parallelogram;perimeter=parallelogramPerimeter;whiteSpace=wrap;html=1;fixedSize=1;fillColor=#fff2cc;strokeColor=#d6b656;" parent="1" vertex="1">
          <mxGeometry x="480" y="-280" width="127" height="40" as="geometry" />
        </mxCell>
        <mxCell id="-Pgl7EnzZRn0viPuzSYj-35" style="edgeStyle=orthogonalEdgeStyle;rounded=0;orthogonalLoop=1;jettySize=auto;html=1;exitX=0.5;exitY=1;exitDx=0;exitDy=0;entryX=0.5;entryY=0;entryDx=0;entryDy=0;" parent="1" source="-Pgl7EnzZRn0viPuzSYj-36" target="-Pgl7EnzZRn0viPuzSYj-38" edge="1">
          <mxGeometry relative="1" as="geometry" />
        </mxCell>
        <mxCell id="-Pgl7EnzZRn0viPuzSYj-36" value="校准集" style="shape=parallelogram;perimeter=parallelogramPerimeter;whiteSpace=wrap;html=1;fixedSize=1;fillColor=#fff2cc;strokeColor=#d6b656;" parent="1" vertex="1">
          <mxGeometry x="670" y="-280" width="127" height="40" as="geometry" />
        </mxCell>
        <mxCell id="-Pgl7EnzZRn0viPuzSYj-37" style="edgeStyle=orthogonalEdgeStyle;rounded=0;orthogonalLoop=1;jettySize=auto;html=1;exitX=0.5;exitY=1;exitDx=0;exitDy=0;entryX=0.5;entryY=0;entryDx=0;entryDy=0;" parent="1" source="-Pgl7EnzZRn0viPuzSYj-38" target="-Pgl7EnzZRn0viPuzSYj-39" edge="1">
          <mxGeometry relative="1" as="geometry" />
        </mxCell>
        <mxCell id="-Pgl7EnzZRn0viPuzSYj-38" value="&lt;span style=&quot;font-size: 11px; text-wrap: nowrap; background-color: rgb(255, 255, 255);&quot;&gt;量化算法&lt;/span&gt;" style="rounded=0;whiteSpace=wrap;html=1;" parent="1" vertex="1">
          <mxGeometry x="570" y="-190" width="120" height="50" as="geometry" />
        </mxCell>
        <mxCell id="-Pgl7EnzZRn0viPuzSYj-39" value="板端推理模型" style="shape=parallelogram;perimeter=parallelogramPerimeter;whiteSpace=wrap;html=1;fixedSize=1;fillColor=#fff2cc;strokeColor=#d6b656;" parent="1" vertex="1">
          <mxGeometry x="566.5" y="-100" width="127" height="40" as="geometry" />
        </mxCell>
      </root>
    </mxGraphModel>
  </diagram>
</mxfile>
